<?xml version="1.0" encoding="UTF-8" standalone="no"?>
<svg
   width="1798.8796"
   height="528.91589"
   viewBox="0 0 1798.8798 528.91589"
   fill="none"
   version="1.1"
   id="svg15"
   sodipodi:docname="EMA logo.svg"
   inkscape:version="1.3.2 (091e20e, 2023-11-25, custom)"
   inkscape:export-filename="..\..\..\Website\New Website Nov 2023\EMA Logo.png"
   inkscape:export-xdpi="500"
   inkscape:export-ydpi="500"
   xml:space="preserve"
   xmlns:inkscape="http://www.inkscape.org/namespaces/inkscape"
   xmlns:sodipodi="http://sodipodi.sourceforge.net/DTD/sodipodi-0.dtd"
   xmlns="http://www.w3.org/2000/svg"
   xmlns:svg="http://www.w3.org/2000/svg"><sodipodi:namedview
     id="namedview17"
     pagecolor="#ffffff"
     bordercolor="#666666"
     borderopacity="1.0"
     inkscape:pageshadow="2"
     inkscape:pageopacity="0.0"
     inkscape:pagecheckerboard="0"
     showgrid="false"
     showguides="true"
     inkscape:guide-bbox="true"
     inkscape:zoom="0.5"
     inkscape:cx="316"
     inkscape:cy="759"
     inkscape:window-width="1920"
     inkscape:window-height="1001"
     inkscape:window-x="-9"
     inkscape:window-y="-9"
     inkscape:window-maximized="1"
     inkscape:current-layer="svg15"
     inkscape:showpageshadow="2"
     inkscape:deskcolor="#d1d1d1"><sodipodi:guide
       position="1994.2567,-4807.2801"
       orientation="0,-1"
       id="guide19998"
       inkscape:locked="false" /></sodipodi:namedview><path
     id="rect1"
     style="fill:#606055;fill-opacity:1;stroke:#000000;stroke-width:0;stroke-linecap:round;stroke-miterlimit:2;paint-order:fill markers stroke"
     d="M 1312.7773 74.226562 A 190.043 190.043 0 0 0 1122.7344 264.26953 A 190.043 190.043 0 0 0 1312.7773 454.3125 A 190.043 190.043 0 0 0 1331.125 453 L 1331.125 383.20703 L 1331.2891 380.96289 A 118.3225 118.3225 0 0 1 1312.0742 382.68359 A 118.3225 118.3225 0 0 1 1193.752 264.36133 A 118.3225 118.3225 0 0 1 1311.209 146.10742 L 1616.6602 454.49219 L 1717.1973 454.49219 L 1341.0508 74.734375 L 1326.6875 74.744141 L 1326.6758 74.757812 A 190.043 190.043 0 0 0 1312.7773 74.226562 z M 271.51953 74.414062 A 189.8483 189.8483 0 0 0 81.669922 264.26367 A 189.8483 189.8483 0 0 0 271.51953 454.11133 A 189.8483 189.8483 0 0 0 459.65234 288.25195 L 392.61523 288.25195 A 122.87955 122.87955 0 0 1 272.11523 387.27148 A 122.87955 122.87955 0 0 1 149.23633 264.39062 A 122.87955 122.87955 0 0 1 153.07422 235.69922 L 401.63672 235.69922 L 401.63672 235.58984 L 459.16992 235.58984 A 189.8483 189.8483 0 0 0 271.51953 74.414062 z M 666.85156 74.734375 C 552.14591 74.734375 494.35352 142.52466 494.35352 226.73047 L 494.35352 453.86328 L 569.91211 453.86328 L 569.91211 235.99609 C 569.91211 190.01596 606.92807 153 652.9082 153 L 677.19141 153 C 723.17154 153 760.1875 190.01596 760.1875 235.99609 L 760.1875 453.86328 L 797.99023 453.86328 L 798.16992 453.86328 L 798.34961 453.86328 L 836.15234 453.86328 L 836.15234 235.99609 C 836.15234 190.01596 873.16829 153 919.14844 153 L 943.43164 153 C 989.41177 153 1026.4277 190.01596 1026.4277 235.99609 L 1026.4277 453.86328 L 1101.9863 453.86328 L 1101.9863 226.73047 C 1101.9863 142.52467 1044.1938 74.734375 929.48828 74.734375 C 825.48374 74.734375 798.16992 135.53609 798.16992 144.06641 C 798.16996 135.53609 770.85609 74.734375 666.85156 74.734375 z M 272.11523 141.51172 A 122.87955 122.87955 0 0 1 350.93359 170.85547 L 192.53516 170.85547 A 122.87955 122.87955 0 0 1 272.11523 141.51172 z " /><defs
     id="defs13"><clipPath
       id="clip0"><rect
         width="1652"
         height="713"
         fill="#ffffff"
         id="rect10"
         x="0"
         y="0" /></clipPath></defs><path
     id="path1-9"
     style="fill:#606055;fill-opacity:1;stroke:#000000;stroke-width:0;stroke-linecap:round;stroke-miterlimit:2;paint-order:fill markers stroke"
     d="M 259.51953,758 A 189.8483,189.8483 0 0 0 69.669921,947.8496 189.8483,189.8483 0 0 0 259.51953,1137.6973 189.8483,189.8483 0 0 0 447.65234,971.8379 h -67.03711 a 122.87955,122.87955 0 0 1 -120.5,99.0195 122.87955,122.87955 0 0 1 -122.8789,-122.8808 122.87955,122.87955 0 0 1 3.83789,-28.6914 h 248.5625 v -0.1094 h 57.5332 A 189.8483,189.8483 0 0 0 259.51953,758 Z m 0.5957,67.09766 a 122.87955,122.87955 0 0 1 78.81836,29.34375 H 180.53516 a 122.87955,122.87955 0 0 1 79.58007,-29.34375 z" /></svg>
