<svg width="84" height="84" viewBox="0 0 84 84" fill="none" xmlns="http://www.w3.org/2000/svg">
<path d="M66.535 74.97L66.605 75.04C64.54 75.985 62.195 76.58 59.605 76.825C62.16 76.58 64.47 75.915 66.535 74.97Z" fill="white" fill-opacity="0.7"/>
<path d="M36.33 52.5C36.33 47.8995 32.6005 44.17 28 44.17C23.3995 44.17 19.67 47.8995 19.67 52.5C19.67 57.1005 23.3995 60.83 28 60.83C32.6005 60.83 36.33 57.1005 36.33 52.5Z" fill="white" fill-opacity="0.7"/>
<path d="M7 27.335L7 56.665C7 69.405 14.595 77 27.335 77H56.665C60.48 77 63.805 76.335 66.605 75.04C73.255 72.03 77 65.59 77 56.665V27.335C77 14.595 69.405 7 56.665 7H48.65H27.335C14.595 7 7 14.595 7 27.335ZM43.75 12.705C41.405 15.435 41.405 19.845 43.75 22.575L56.245 37.135C58.59 39.865 58.59 44.275 56.245 47.005L55.265 48.195C53.095 50.68 52.885 54.635 54.775 57.435L63.56 70.525C61.6 71.295 59.325 71.75 56.665 71.75H27.335C17.465 71.75 12.25 66.535 12.25 56.665L12.25 27.335C12.25 17.465 17.465 12.25 27.335 12.25H44.135L43.75 12.705Z" fill="white" fill-opacity="0.7"/>
</svg>
