<svg width="103" height="161" viewBox="0 0 103 161" fill="none" xmlns="http://www.w3.org/2000/svg">
<path d="M85.5316 87.2481V146.763C85.5316 150.656 81.2221 152.993 77.9458 150.9L63.3704 141.53L51.0604 133.616L38.7473 141.531L24.172 150.901C20.8986 152.994 16.5891 150.656 16.5891 146.764V87.2487H85.5316V87.2481Z" fill="#F41943"/>
<path d="M63.3698 87.2481V141.531L51.0604 133.616L38.7473 141.531V87.2481H63.3698Z" fill="#EBF2F2"/>
<path d="M85.5317 87.2481V94.9188C80.7949 98.1856 73.0424 102.642 63.3699 104.992V87.2481H85.5317Z" fill="#C6123D"/>
<path d="M63.3697 87.2481V104.992C59.3076 105.984 54.9036 106.6 50.2446 106.6C46.1795 106.6 42.3325 106.12 38.7466 105.332V87.2481H63.3697Z" fill="#C3DBDA"/>
<path d="M38.7473 87.2481V105.332C29.2087 103.222 21.5248 98.9026 16.5891 95.4865V87.2487H38.7473V87.2481Z" fill="#C6123D"/>
<path d="M51.0592 102.441C79.2583 102.441 102.118 79.5813 102.118 51.3822C102.118 23.183 79.2583 0.322998 51.0592 0.322998C22.86 0.322998 0 23.183 0 51.3822C0 79.5813 22.86 102.441 51.0592 102.441Z" fill="#F9B906"/>
<path d="M51.059 97.9012C76.7508 97.9012 97.578 77.0739 97.578 51.3821C97.578 25.6904 76.7508 4.86315 51.059 4.86315C25.3673 4.86315 4.54004 25.6904 4.54004 51.3821C4.54004 77.0739 25.3673 97.9012 51.059 97.9012Z" fill="#E8A615"/>
<path d="M94.7315 51.3816C94.7315 75.4633 75.1421 95.0562 51.0604 95.0562C44.2305 95.0562 37.7626 93.4817 32.0023 90.675C25.9909 87.7476 20.7487 83.4836 16.6638 78.2676C14.7989 75.8875 13.1754 73.3091 11.8291 70.5676C8.98657 64.7744 7.38574 58.2611 7.38574 51.3822C7.38574 46.2803 8.26593 41.3834 9.8799 36.8295C14.7403 23.111 26.2748 12.5261 40.5567 8.98862C43.9209 8.15385 47.4417 7.71047 51.0604 7.71047C59.1159 7.71047 66.6659 9.90107 73.1505 13.7188C76.042 15.4236 78.722 17.4481 81.1409 19.7498C85.7014 24.0892 89.3267 29.3996 91.6804 35.3488C93.6493 40.3138 94.7315 45.7222 94.7315 51.3816Z" fill="#F9B906"/>
<path d="M73.1505 13.7182L11.8291 70.567C8.98657 64.7738 7.38574 58.2605 7.38574 51.3816C7.38574 46.2797 8.26593 41.3828 9.8799 36.8289L40.5567 8.98802C43.9209 8.15325 47.4417 7.70987 51.0604 7.70987C59.1159 7.71047 66.6659 9.90107 73.1505 13.7182Z" fill="#FFC943"/>
<path d="M91.6802 35.3488L32.002 90.6744C25.9907 87.747 20.7484 83.483 16.6636 78.267L81.1406 19.7492C85.7011 24.0886 89.3264 29.399 91.6802 35.3488Z" fill="#FFC943"/>
<path d="M51.059 160.677C78.7645 160.677 101.224 159.243 101.224 157.475C101.224 155.706 78.7645 154.272 51.059 154.272C23.3535 154.272 0.893799 155.706 0.893799 157.475C0.893799 159.243 23.3535 160.677 51.059 160.677Z" fill="#E2E2E2"/>
</svg>
